<svg width="50" height="50" viewBox="0 0 50 50" fill="none" xmlns="http://www.w3.org/2000/svg">
<path d="M36.5896 36.8448L14.1714 36.7789C14.1313 35.8092 14.0866 34.5262 14.0576 33.0759C13.993 29.8514 14.0072 25.8693 14.3042 22.6666C14.417 21.4496 14.9906 20.0298 15.972 18.5099C16.9415 17.0084 18.2315 15.529 19.6062 14.216C20.9796 12.9042 22.3923 11.8015 23.5724 11.0412C24.1642 10.6599 24.6667 10.3847 25.0531 10.2124C25.2687 10.1164 25.4032 10.0727 25.469 10.0533C25.5383 10.0721 25.6799 10.1147 25.9065 10.2105C26.2932 10.3739 26.7936 10.6342 27.3798 10.9953C28.5497 11.716 29.9477 12.768 31.3035 14.0429C34.1051 16.6774 36.3078 19.8641 36.5341 22.7172C36.8132 26.2352 36.8031 30.2271 36.72 33.3677C36.6838 34.7352 36.6341 35.9318 36.5896 36.8448Z" stroke="black" stroke-width="4" stroke-linejoin="round"/>
</svg>
